<?xml version="1.0" encoding="utf-8"?>
<!-- Generator: Adobe Illustrator 21.0.0, SVG Export Plug-In . SVG Version: 6.00 Build 0)  -->
<svg version="1.1" id="Capa_1" xmlns="http://www.w3.org/2000/svg" xmlns:xlink="http://www.w3.org/1999/xlink" x="0px" y="0px"
	 viewBox="0 0 60 60" style="enable-background:new 0 0 60 60;" xml:space="preserve">
<style type="text/css">
	.st0{fill:none;}
	.st1{fill:#005CB9;}
</style>
<rect class="st0" width="60" height="60"/>
<rect x="18" y="18" class="st0" width="24" height="24"/>
<path class="st1" d="M53.8,11.6C51.2,9,43.8,4.6,37.6,10L33,14.7l0,0c-1,0.8-1,2.3,0,3.1c0.8,1,2.3,1,3.1,0c0,0,0,0,0.3-0.3l4.1-4.1
	c4.6-4.1,9.8,0.8,10.5,1.3c5.9,6.2,1.5,11,1,11.3L41.5,36.7c-0.5,0.8-1.8,0.8-2.3,0l0,0l-19.5-19c-1.3-1.3-3.1-2.1-4.6-2.1
	s-2.6,0.5-3.6,1.5c-1.3,1-2.1,2.6-2.1,3.8c-0.3,2.3,1.8,4.4,2.1,4.6L31,44.9l0,0l0.5,0.5l0,0c0.5,0.5,0.5,1.5,0,2.1s-1.5,0.5-2.1,0
	l0,0L28.9,47l0,0l-2.3-2.3l0,0L9.1,27c-5.9-6.7-0.5-11.8,0.3-12.6c5.9-4.6,10.8,0,11.3,0.5L32.5,27c1.3,1.3,3.1,1.3,4.4,0l6.7-6.7
	l0,0l0.3-0.3l0,0c0.5-0.3,1.5-0.3,2.1,0.3s0.5,1.5,0,2.1l0,0h-0.3l0,0l-7.2,7.2l0,0c-1,0.8-1,2.3-0.3,3.1c0.8,1,2.3,1,3.1,0.3
	c0,0,0,0,0.3-0.3l7.2-6.9c1.5-1.5,2.1-3.3,1.8-4.6c0-1.3-0.5-2.8-1.8-3.8c-1-1.3-2.3-1.8-3.8-1.8l0,0c-2.3,0-4.1,1.8-4.6,2.3
	l-4.4,4.4c-0.5,0.8-1.5,0.8-2.3,0l0,0l-9.8-10.5C21.2,9,14,4.9,6.6,10.8c0,0-9.8,8.2-1,18.7l21,21.6c1.8,1.8,4.6,2.1,6.7,0l0.8-0.8
	l0,0c2.3-2.3,2.3-5.9,0-8l0,0l0,0L15,23.6l0,0l-1-1.3l0,0c-0.5-0.5-0.5-1.3,0-2.1c0.8-0.5,1.5-0.5,2.1,0l0,0l0,0l0.3,0.3l0,0
	l21.8,21c1.3,1.3,2.8,1.3,4.1,0L54.8,29C54.8,29.3,62.8,21.1,53.8,11.6"/>
</svg>
